<mxfile host="app.diagrams.net" modified="2023-05-12T22:13:33.041Z" agent="Mozilla/5.0 (Windows NT 10.0; Win64; x64) AppleWebKit/537.36 (KHTML, like Gecko) Chrome/113.0.0.0 Safari/537.36" etag="SQjarn5YCYXXCzv3oLGr" version="21.1.7" type="github">
  <diagram id="R2lEEEUBdFMjLlhIrx00" name="Page-1">
    <mxGraphModel dx="1674" dy="1884" grid="1" gridSize="10" guides="1" tooltips="1" connect="1" arrows="1" fold="1" page="1" pageScale="1" pageWidth="850" pageHeight="1100" math="0" shadow="0" extFonts="Permanent Marker^https://fonts.googleapis.com/css?family=Permanent+Marker">
      <root>
        <mxCell id="0" />
        <mxCell id="1" parent="0" />
        <mxCell id="vsaww9xRMmS9_g4bSJYO-3" style="edgeStyle=orthogonalEdgeStyle;rounded=0;orthogonalLoop=1;jettySize=auto;html=1;" edge="1" parent="1" source="vsaww9xRMmS9_g4bSJYO-1" target="vsaww9xRMmS9_g4bSJYO-2">
          <mxGeometry relative="1" as="geometry" />
        </mxCell>
        <mxCell id="vsaww9xRMmS9_g4bSJYO-1" value="set" style="rounded=1;whiteSpace=wrap;html=1;" vertex="1" parent="1">
          <mxGeometry x="140" y="-100" width="120" height="60" as="geometry" />
        </mxCell>
        <mxCell id="vsaww9xRMmS9_g4bSJYO-5" style="edgeStyle=orthogonalEdgeStyle;rounded=0;orthogonalLoop=1;jettySize=auto;html=1;" edge="1" parent="1" source="vsaww9xRMmS9_g4bSJYO-2" target="vsaww9xRMmS9_g4bSJYO-4">
          <mxGeometry relative="1" as="geometry" />
        </mxCell>
        <mxCell id="vsaww9xRMmS9_g4bSJYO-9" style="edgeStyle=orthogonalEdgeStyle;rounded=0;orthogonalLoop=1;jettySize=auto;html=1;" edge="1" parent="1" source="vsaww9xRMmS9_g4bSJYO-2" target="vsaww9xRMmS9_g4bSJYO-8">
          <mxGeometry relative="1" as="geometry" />
        </mxCell>
        <mxCell id="vsaww9xRMmS9_g4bSJYO-2" value="check_slot" style="rhombus;whiteSpace=wrap;html=1;" vertex="1" parent="1">
          <mxGeometry x="160" y="210" width="80" height="80" as="geometry" />
        </mxCell>
        <mxCell id="vsaww9xRMmS9_g4bSJYO-4" value="" style="rounded=1;whiteSpace=wrap;html=1;" vertex="1" parent="1">
          <mxGeometry x="140" y="340" width="120" height="60" as="geometry" />
        </mxCell>
        <mxCell id="vsaww9xRMmS9_g4bSJYO-6" value="yes" style="text;html=1;strokeColor=none;fillColor=none;align=center;verticalAlign=middle;whiteSpace=wrap;rounded=0;" vertex="1" parent="1">
          <mxGeometry x="130" y="300" width="60" height="30" as="geometry" />
        </mxCell>
        <mxCell id="vsaww9xRMmS9_g4bSJYO-8" value="reject" style="rounded=1;whiteSpace=wrap;html=1;" vertex="1" parent="1">
          <mxGeometry x="300" y="220" width="120" height="60" as="geometry" />
        </mxCell>
        <mxCell id="vsaww9xRMmS9_g4bSJYO-10" value="no" style="text;html=1;strokeColor=none;fillColor=none;align=center;verticalAlign=middle;whiteSpace=wrap;rounded=0;" vertex="1" parent="1">
          <mxGeometry x="240" y="220" width="60" height="30" as="geometry" />
        </mxCell>
        <mxCell id="vsaww9xRMmS9_g4bSJYO-14" style="edgeStyle=orthogonalEdgeStyle;rounded=0;orthogonalLoop=1;jettySize=auto;html=1;" edge="1" parent="1" source="vsaww9xRMmS9_g4bSJYO-11" target="vsaww9xRMmS9_g4bSJYO-13">
          <mxGeometry relative="1" as="geometry" />
        </mxCell>
        <mxCell id="vsaww9xRMmS9_g4bSJYO-11" value="check_prefix" style="rhombus;whiteSpace=wrap;html=1;" vertex="1" parent="1">
          <mxGeometry x="160" y="20" width="80" height="80" as="geometry" />
        </mxCell>
        <mxCell id="vsaww9xRMmS9_g4bSJYO-12" value="yes" style="text;html=1;strokeColor=none;fillColor=none;align=center;verticalAlign=middle;whiteSpace=wrap;rounded=0;" vertex="1" parent="1">
          <mxGeometry x="210" y="140" width="60" height="30" as="geometry" />
        </mxCell>
        <mxCell id="vsaww9xRMmS9_g4bSJYO-13" value="set_prefix" style="rounded=1;whiteSpace=wrap;html=1;" vertex="1" parent="1">
          <mxGeometry x="310" y="30" width="120" height="60" as="geometry" />
        </mxCell>
        <mxCell id="vsaww9xRMmS9_g4bSJYO-15" value="no" style="text;html=1;strokeColor=none;fillColor=none;align=center;verticalAlign=middle;whiteSpace=wrap;rounded=0;" vertex="1" parent="1">
          <mxGeometry x="240" y="20" width="60" height="30" as="geometry" />
        </mxCell>
      </root>
    </mxGraphModel>
  </diagram>
</mxfile>
